<svg xmlns="http://www.w3.org/2000/svg" width="117" height="19" viewBox="0 0 117 19">
  <g id="Grupo_3008" data-name="Grupo 3008" transform="translate(-4043 477)">
    <text id="FastNotes" transform="translate(4074 -462)" font-size="16" font-family="Montserrat-BoldItalic, Montserrat" font-weight="700" font-style="italic"><tspan x="0" y="0">FastNotes</tspan></text>
    <path id="Trazado_1841" data-name="Trazado 1841" d="M5.876,11.948H3.152a1.362,1.362,0,1,0,0,2.724H5.876a1.362,1.362,0,1,0,0-2.724ZM28.731,8.08V8h0A4.086,4.086,0,0,0,25.5,6.5H14.7a4.086,4.086,0,0,0-2.724,1.008h0a3.991,3.991,0,0,0-1.308,2.4l-1.2,6.81A4.09,4.09,0,0,0,13.49,21.51H24.3a4.086,4.086,0,0,0,4.086-3.378l1.2-6.81A4.086,4.086,0,0,0,28.731,8.08ZM25,9.224l-4.631,3.759a1.362,1.362,0,0,1-1.88-.163l-3.173-3.6Zm.654,8.4a1.362,1.362,0,0,1-1.362,1.13H13.49a1.368,1.368,0,0,1-1.335-1.594l1.09-6.17,3.2,3.623a4.086,4.086,0,0,0,5.639.477l4.685-3.827ZM7.238,6.5H3.152a1.362,1.362,0,1,0,0,2.724H7.238a1.362,1.362,0,0,0,0-2.724Z" transform="translate(4041.21 -481.505)" fill="#6563ff"/>
  </g>
</svg>
